<svg height="16" viewBox="0 0 16 16" width="16" xmlns="http://www.w3.org/2000/svg"><g fill="none" fill-rule="evenodd"><path d="m0 0h16v16h-16z"/><path d="m12 3c1.1045695 0 2 .8954305 2 2v6c0 1.1045695-.8954305 2-2 2h-8c-1.1045695 0-2-.8954305-2-2v-6c0-1.1045695.8954305-2 2-2zm-3.5 7h-4c-.27614237 0-.5.2238576-.5.5s.22385763.5.5.5h4c.27614237 0 .5-.2238576.5-.5s-.22385763-.5-.5-.5zm3 0h-1c-.2761424 0-.5.2238576-.5.5s.2238576.5.5.5h1c.2761424 0 .5-.2238576.5-.5s-.2238576-.5-.5-.5zm-4-2-.08987563.00805567c-.23324921.04233596-.41012437.24648444-.41012437.49194433 0 .27614237.22385763.5.5.5h4l.0898756-.00805567c.2332492-.04233596.4101244-.24648444.4101244-.49194433 0-.27614237-.2238576-.5-.5-.5zm-3 0-.08987563.00805567c-.23324921.04233596-.41012437.24648444-.41012437.49194433 0 .27614237.22385763.5.5.5h1l.08987563-.00805567c.23324921-.04233596.41012437-.24648444.41012437-.49194433 0-.27614237-.22385763-.5-.5-.5z" fill="#fff"/></g></svg>