<svg height="20" viewBox="0 0 20 20" width="20" xmlns="http://www.w3.org/2000/svg"><g fill="none"><circle cx="10" cy="10" fill="none" opacity="0" r="10"/><path d="m6.6 10.8h1c.6 0 .8 0 1 .1s.4.3.5.5.2.4.2 1v1c0 .6-.1.8-.2 1s-.3.3-.5.4-.4.2-1 .2h-1c-.6 0-.8-.1-1-.2s-.3-.2-.4-.4-.2-.4-.2-1v-1c0-.6.1-.8.2-1s.2-.4.4-.5.4-.1 1-.1zm5.8 0h1c.6 0 .8 0 1 .1s.3.3.4.5.2.4.2 1v1c0 .6-.1.8-.2 1s-.2.3-.4.4-.4.2-1 .2h-1c-.6 0-.8-.1-1-.2s-.4-.2-.5-.4-.1-.4-.1-1v-1c0-.6 0-.8.1-1s.3-.4.5-.5.4-.1 1-.1zm-5.8-5.8h1c.6 0 .8.1 1 .2s.4.2.5.4.2.4.2 1v1c0 .6-.1.8-.2 1s-.3.4-.5.5-.4.2-1 .2h-1c-.6 0-.8-.1-1-.2s-.3-.3-.4-.5-.2-.4-.2-1v-1c0-.6.1-.8.2-1s.2-.3.4-.4.4-.2 1-.2zm7.4.3.7.7c.4.4.5.6.6.8s.1.4 0 .7c-.1.2-.2.4-.6.8l-.7.7c-.4.4-.6.5-.8.6-.2 0-.4 0-.7 0-.2-.1-.4-.2-.8-.6l-.7-.7c-.4-.4-.5-.6-.6-.8 0-.3 0-.5 0-.7.1-.2.2-.4.6-.8l.7-.7c.4-.4.6-.5.8-.6.3-.1.5-.1.7 0s.4.2.8.6z" fill="#fff"/></g></svg>