<svg height="20" viewBox="0 0 20 20" width="20" xmlns="http://www.w3.org/2000/svg"><g fill="none" fill-rule="evenodd"><path d="m0 0h20v20h-20z"/><path d="m9.48 4.507c.287-.679.75-.687 1.04 0l1.48 3.493 3.345.329c.732.071.876.513.304 1l-2.647 2.251.99 3.699c.19.708-.136.935-.739.5l-3.253-2.354-3.252 2.352c-.599.433-.93.212-.74-.5l.99-3.698-2.646-2.252c-.565-.48-.43-.927.304-1l3.344-.327z" fill="#479dff"/><path d="m12.69 7.063 2.753.27c1.615.159 2.095 1.701.854 2.757l-2.165 1.842.827 3.088c.434 1.622-.93 2.553-2.292 1.569l-2.667-1.929-2.667 1.93c-1.355.98-2.726.058-2.29-1.57l.826-3.087-2.165-1.842c-1.234-1.051-.764-2.599.854-2.758l2.753-.27 1.248-2.946c.632-1.492 2.247-1.5 2.882 0l1.248 2.946z" stroke="#fff" stroke-width="2"/></g></svg>