<svg height="18" width="18" xmlns="http://www.w3.org/2000/svg"><path d="M10.872 2c1.783 0 2.43.186 3.082.534.652.349 1.163.86 1.512 1.512S16 5.345 16 7.128v3.744c0 1.783-.186 2.43-.534 3.082a3.635 3.635 0 01-1.512 1.512c-.652.348-1.299.534-3.082.534H7.128c-1.783 0-2.43-.186-3.082-.534s-1.163-.86-1.512-1.512C2.186 13.302 2 12.655 2 10.872V7.128c0-1.783.186-2.43.534-3.082a3.635 3.635 0 011.512-1.512C4.698 2.186 5.345 2 7.128 2zM7.75 5.651a.75.75 0 00-.75.75V11.6a.75.75 0 001.166.624l3.898-2.599a.75.75 0 000-1.248L8.166 5.777a.75.75 0 00-.416-.126z" fill="#7d9cb8" fill-rule="evenodd"/></svg>