<svg height="20" viewBox="0 0 20 20" width="20" xmlns="http://www.w3.org/2000/svg"><g fill="none"><rect height="20" rx="10" width="20"/><g fill="#fff"><path d="m12.5 5v-.27147233c0-.16406157.0301683-.2900766.0868181-.39600252.0566498-.10592593.1397811-.18905722.245707-.24570702.105926-.05664981.231941-.08681813.3960026-.08681813h.0429446c.1640616 0 .2900766.03016832.3960026.08681813.1059259.0566498.1890572.13978109.245707.24570702.0566498.10592592.0868181.23194095.0868181.39600252v.35233218c.3037777.05625109.5119829.14124192.7210571.25305603.4074074.21788387.7271432.53761958.945027.94502699.2178839.40740741.3339159.81151521.3339159 1.92591363v4.090287c0 1.1143984-.116032 1.5185062-.3339159 1.9259136-.2178838.4074074-.5376196.7271432-.945027.945027-.4074074.2178839-.8115152.3339159-1.9259136.3339159h-5.590287c-1.11439842 0-1.51850622-.116032-1.92591363-.3339159-.40740741-.2178838-.72714312-.5376196-.94502699-.945027s-.33391588-.8115152-.33391588-1.9259136v-4.090287c0-1.11439842.11603201-1.51850622.33391588-1.92591363s.53761958-.72714312.94502699-.94502699c.20907421-.11181411.41727945-.19680494.72105713-.25305603v-.35233218c0-.16406157.03016832-.2900766.08681813-.39600252.0566498-.10592593.13978109-.18905722.24570702-.24570702.10592592-.05664981.23194095-.08681813.39600252-.08681813h.04294466c.16406157 0 .2900766.03016832.39600252.08681813.10592593.0566498.18905722.13978109.24570702.24570702.05664981.10592592.08681813.23194095.08681813.39600252v.27147233zm-6.16673731 3c-.28974359 0-.39481162.03016832-.50073754.08681813-.10592593.0566498-.18905722.13978109-.24570702.24570702-.05664981.10592592-.08681813.21099395-.08681813.50073754v3.88479471c0 .4457594.04641281.6074025.13356635.7703655.08715355.1629629.21504784.2908572.3780108.3780107.16296296.0871536.32460608.1335664.77036545.1335664h6.4361148c.4457594 0 .6074025-.0464128.7703655-.1335664.1629629-.0871535.2908572-.2150478.3780107-.3780107.0871536-.162963.1335664-.3246061.1335664-.7703655v-3.88479471c0-.28974359-.0301683-.39481162-.0868181-.50073754-.0566498-.10592593-.1397811-.18905722-.245707-.24570702-.105926-.05664981-.210994-.08681813-.5007376-.08681813z"/><path d="m11.8926383 9.5h.2147234c.2517372 0 .3867332.0348096.5089554.10017476.1222223.06536516.218143.16128588.2835081.2835081.0653652.12222224.1001748.25721824.1001748.50895544v.2147234c0 .2517372-.0348096.3867332-.1001748.5089554-.0653651.1222223-.1612858.218143-.2835081.2835081-.1222222.0653652-.2572182.1001748-.5089554.1001748h-.2147234c-.2517372 0-.3867332-.0348096-.5089554-.1001748-.1222223-.0653651-.218143-.1612858-.2835081-.2835081-.0653652-.1222222-.1001748-.2572182-.1001748-.5089554v-.2147234c0-.2517372.0348096-.3867332.1001748-.50895544.0653651-.12222222.1612858-.21814294.2835081-.2835081.1222222-.06536516.2572182-.10017476.5089554-.10017476z"/></g></g></svg>