<svg height="20" viewBox="0 0 20 20" width="20" xmlns="http://www.w3.org/2000/svg"><g fill="none"><circle cx="10" cy="10" r="10"/><path d="m5.57680367 5.0014244c.1735973.00846938.31699635.01835166.43019715.02964682 4.70028928.46899432 8.44398158 4.18584753 8.95377718 8.87350828.0145418.1337139.0271101.3063718.0377049.5179737.0151242.3033445-.21847.5615636-.5218112.5767517-.0091598.0004587-.0183295.0006881-.0275007.0006881h-.905485c-.2918178-.0000243-.5328313-.2279415-.5491184-.5193044-.0100666-.1800822-.0219447-.3273878-.0356343-.4419167-.4450505-3.7233442-3.44292035-6.6625812-7.19352752-7.01782517-.0675252-.00639574-.14914463-.01216331-.24485829-.0173027-.29189894-.01563607-.52054749-.2568914-.52054749-.54920883v-.90361485c-.00004941-.3037839.2462161-.5500494.55-.5500494.00893854 0 .01787575.00021788.02680367.00065345zm.01267392 3.36053874c.24280687.01747317.37716105.02813866.40306253.03199645 2.82816609.42122963 5.07751588 2.61501961 5.58155388 5.41500161.0272172.1511938.0506175.3503731.0702012.5975381.0240461.3028319-.2019995.5677806-.5048355.5917752-.0144538.0011452-.0289471.0017185-.0434462.0017185h-.8067378c-.2851152-.0000794-.52294489-.2179879-.54782317-.5020156-.00888769-.101468-.01891116-.1871045-.03007042-.2569095-.32389135-2.0260529-1.92352537-3.6263508-3.94937929-3.9514638-.00458988-.0007366-.08970433-.0076547-.25534335-.0207543-.28605997-.022602-.50665947-.2613365-.50665947-.54828801v-.81001898c.00000169-.30375568.24624432-.54999831.55-.54999831.01317194 0 .02633962.00047319.03947759.00141864zm2.14365519 6.63802986h-2.18313278c-.30375661 0-.55-.2462434-.55-.55v-2.1855718c.00003568-.3037369.24626309-.5499643.55-.5499643.03546081 0 .0708385.0034297.10563898.0102411.00280263.0005486.00557645.0010997.00832146.0016533 1.26836844.2557999 2.27643416 1.2301162 2.5811326 2.4799327.01091656.0447777.02115599.0961753.03071828.1541929.0494768.2997412-.15347085.5827892-.45322391.6321937-.02956897.0048734-.05948674.0073224-.08945463.0073224z" fill="#fff"/></g></svg>