<svg height="14" viewBox="0 0 11 14" width="11" xmlns="http://www.w3.org/2000/svg"><g fill="none" fill-rule="evenodd" transform="translate(-1)"><path d="m0 0h14v14h-14z"/><path d="m6.02327945.03752809c-.20932086.15807863-.37794372.28356305-.50586859.37645327-3.30598031 2.4005748-4.50349111 5.7963721-4.51741086 8.20881376 0 3.18649178 2.35697401 5.37720488 5.49960602 5.37720488 3.14263202 0 5.46035758-2.1911016 5.49960598-5.37720488.0109471-.88866226-.0651226-2.95481489-2.01006066-5.42328497-.55461396-.70390312-1.02977722-1.1860891-1.42548978-1.44655795l-.00001986.00003016c-.09282351-.06109897-.21760234-.03538116-.27870132.05744235-.02554479.03880846-.03687232.08526121-.03205962.13147237.02228026.21393295.05032014.479791.08411964.79757416.18889737 1.7760144-.69393499 2.59883823-1.90078883 2.41718393-1.16682835-.17562971-1.92680483-1.8099876-.19640853-4.52896058.05278827-.08294625.09601147-.20688774.12966958-.37182445l.00004951.0000101c.02416152-.11840006-.0522339-.23396905-.17063396-.25813058-.06153233-.01255671-.12549366.00193165-.17560872.03977843z" fill="#f05c44" fill-rule="nonzero"/><path d="m4.25 8.75 1.75 1.75 3-3" stroke="#fff" stroke-linecap="round" stroke-linejoin="round" stroke-width="1.3"/></g></svg>