<svg height="20" viewBox="0 0 20 20" width="20" xmlns="http://www.w3.org/2000/svg"><g fill="none" fill-rule="evenodd"><path d="m0 0h20v20h-20z" fill-rule="nonzero"/><path d="m7 0c3.8659932 0 7 3.13400675 7 7v6.5771736c0 .5522847-.4477153 1-1 1-.1154726 0-.2300728-.0199998-.3387195-.0591126l-.7179911-.2584768c-.5334679-.1920484-.7657453-.2384799-1.0208335-.2483748-.2550881-.009895-.494271.0306843-.7318216.1241593-.23755063.093475-.44151643.2139185-.8817912.57117l-.7506298.6090825c-.48338283.3922306-.76939019.5379055-1.08475667.6223241-.31536647.0844186-.63154679.0844186-.94691326 0-.31536648-.0844186-.60137384-.2300935-1.08475667-.6223241l-.7506298-.6090825c-.44027477-.3572515-.64424057-.477695-.8817912-.57117-.23755062-.093475-.47673347-.1340543-.73182162-.1241593-.25508815.0098949-.48736561.0563264-1.02083344.2483748l-.71799117.2584768c-.51963777.1870696-1.09253728-.0825302-1.27960688-.602168-.03911282-.1086467-.05911259-.2232468-.05911259-.3387194v-6.5771736c0-3.86599325 3.13400675-7 7-7zm0 9.40056228c-1.35 0-3-1.05-3 .25 0 1.00000002 1.5 2.00000002 3 2.00000002s3-1 3-2.00000002c0-1.3-1.65-.25-3-.25zm1.76303021-4.28533494c-.28333876.77846685-.03972615 1.58180752.54412399 1.79431159s1.2868456-.24629941 1.5701844-1.02476627c.2833388-.77846685.0397262-1.58180752-.544124-1.79431159-.58385011-.21250407-1.28684562.24629941-1.57018439 1.02476627zm-3.53087601 0c-.28333877-.77846686-.98633427-1.23727034-1.57018441-1.02476627-.58385015.21250407-.82746275 1.01584474-.54412399 1.79431159.28333877.77846686.98633427 1.23727034 1.57018441 1.02476627.58385015-.21250407.82746275-1.01584474.54412399-1.79431159z" fill="#7d9cb8" transform="translate(3 2)"/></g></svg>