<svg height="16" viewBox="20 235 16 16" width="16" xmlns="http://www.w3.org/2000/svg"><g fill="none"><circle cx="8" cy="8" r="8"/><path d="m34.8 242.3c0 .8-.1 1.5-.4 2.2-.2.6-.6 1.1-1.1 1.5-.4.4-1 .6-1.6.6-.4 0-.8-.1-1.1-.3s-.5-.5-.7-.8h-.1c-.6.7-1.4 1.1-2.3 1.1-1 0-1.7-.3-2.3-.9s-.9-1.4-.9-2.4c0-1.2.4-2.1 1.2-2.9.7-.7 1.7-1 2.9-1 .5 0 1 0 1.6.1.5.1 1 .2 1.4.3l-.2 4.1c0 .8.2 1.2.6 1.2s.7-.3.9-.8.3-1.2.3-2.1c0-.8-.2-1.6-.6-2.3-.3-.7-.9-1.2-1.5-1.6-.7-.3-1.5-.5-2.4-.5-1.1 0-2.1.2-2.9.7-.8.4-1.4 1.1-1.9 2-.4.8-.6 1.8-.6 3 0 1.5.4 2.7 1.2 3.5s2 1.2 3.5 1.2c.6 0 1.3-.1 2-.2s1.4-.3 2.1-.6v1.6c-1.2.5-2.5.8-4 .8-2.1 0-3.7-.6-4.9-1.7s-1.8-2.6-1.8-4.6c0-1.4.3-2.6.9-3.7s1.5-2 2.6-2.6c1.1-.7 2.4-1 3.8-1 1.2 0 2.3.2 3.3.7s1.7 1.3 2.2 2.2.8 2 .8 3.2zm-8.5 1c0 1.2.5 1.8 1.4 1.8.5 0 .9-.2 1.2-.6.2-.3.4-.9.4-1.7l.1-1.8c-.2-.1-.6-.1-.9-.1-.7 0-1.3.2-1.6.6-.4.5-.6 1.1-.6 1.8z" fill="#74aded"/></g></svg>