<svg xmlns="http://www.w3.org/2000/svg" viewBox="0 0 28 28"><defs><style>.b,.d{fill:#a3adb8;fill-rule:evenodd}.d{fill:#fff}</style></defs><path fill="none" d="M0 0h28v28H0z"/><path class="b" d="M5.85 4h16.3a4.4 4.4 0 0 1 2.32.4 2.79 2.79 0 0 1 1.13 1.13 4.4 4.4 0 0 1 .4 2.32v14.3a4.4 4.4 0 0 1-.4 2.32 2.79 2.79 0 0 1-1.13 1.13 4.4 4.4 0 0 1-2.32.4H5.85a4.4 4.4 0 0 1-2.32-.4 2.79 2.79 0 0 1-1.13-1.13 4.4 4.4 0 0 1-.4-2.32V7.85a4.4 4.4 0 0 1 .4-2.32A2.79 2.79 0 0 1 3.53 4.4 4.4 4.4 0 0 1 5.85 4z"/><path d="M5.85 3h16.3a4.4 4.4 0 0 1 2.32.4 2.79 2.79 0 0 1 1.13 1.13 4.4 4.4 0 0 1 .4 2.32v14.3a4.4 4.4 0 0 1-.4 2.32 2.79 2.79 0 0 1-1.13 1.13 4.4 4.4 0 0 1-2.32.4H5.85a4.4 4.4 0 0 1-2.32-.4 2.79 2.79 0 0 1-1.13-1.13 4.4 4.4 0 0 1-.4-2.32V6.85a4.4 4.4 0 0 1 .4-2.32A2.79 2.79 0 0 1 3.53 3.4 4.4 4.4 0 0 1 5.85 3z" fill="#b8c1cc" fill-rule="evenodd"/><path class="b" d="M6.18 8.5h15.64a2.44 2.44 0 0 1 1.31.23 1.52 1.52 0 0 1 .64.64 2.44 2.44 0 0 1 .23 1.31v9.64a2.44 2.44 0 0 1-.23 1.31 1.52 1.52 0 0 1-.64.64 2.44 2.44 0 0 1-1.31.23H6.18a2.44 2.44 0 0 1-1.31-.23 1.52 1.52 0 0 1-.64-.64A2.44 2.44 0 0 1 4 20.32v-9.64a2.44 2.44 0 0 1 .23-1.31 1.52 1.52 0 0 1 .64-.64 2.44 2.44 0 0 1 1.31-.23z"/><path class="d" d="M6.18 9h15.64a2.44 2.44 0 0 1 1.31.23 1.52 1.52 0 0 1 .64.64 2.44 2.44 0 0 1 .23 1.31v9.64a2.44 2.44 0 0 1-.23 1.31 1.52 1.52 0 0 1-.64.64 2.44 2.44 0 0 1-1.31.23H6.18a2.44 2.44 0 0 1-1.31-.23 1.52 1.52 0 0 1-.64-.64A2.44 2.44 0 0 1 4 20.82v-9.64a2.44 2.44 0 0 1 .23-1.31 1.52 1.52 0 0 1 .64-.64A2.44 2.44 0 0 1 6.18 9z"/><path class="b" d="M5 7.4a1 1 0 1 1 1-1 1 1 0 0 1-1 1zm3 0a1 1 0 1 1 1-1 1 1 0 0 1-1 1zm3 0a1 1 0 1 1 1-1 1 1 0 0 1-1 1z"/><path class="d" d="M5 7a1 1 0 1 1 1-1 1 1 0 0 1-1 1zm3 0a1 1 0 1 1 1-1 1 1 0 0 1-1 1zm3 0a1 1 0 1 1 1-1 1 1 0 0 1-1 1z"/><path class="b" d="M10.5 17c-.83 0-1.5-.9-1.5-2s.67-2 1.5-2 1.5.9 1.5 2-.67 2-1.5 2zm7 0c-.83 0-1.5-.9-1.5-2s.67-2 1.5-2 1.5.9 1.5 2-.67 2-1.5 2zm-6.08 3.5a.74.74 0 0 1-1-.21.75.75 0 0 1 .2-1 7.1 7.1 0 0 1 6.84 0 .75.75 0 0 1 .2 1 .74.74 0 0 1-1 .21 5.66 5.66 0 0 0-5.24 0z"/></svg>