<svg height="20" viewBox="0 0 20 20" width="20" xmlns="http://www.w3.org/2000/svg"><g fill="none" fill-rule="evenodd"><circle cx="10" cy="10" r="10"/><path d="m10 8.25c3.0375661 0 5.5 2.4624339 5.5 5.5 0 .0063375-.0000107.0126726-.0000321.0190051-1.4824361-1.2592816-3.4024805-2.0190051-5.4999679-2.0190051v1.862223c0 .1520587-.05331054.2993051-.15065617.4161198-.22981665.27578-.63968371.3130406-.91546369.083224l-4.15029443-3.4585787c-.03949361-.0329113-.07592002-.0693378-.10883135-.1088314-.30052947-.3606353-.25180402-.89661532.10883135-1.19714479l4.15029443-3.45857869c.11681475-.09734563.26406113-.15065617.41611986-.15065617.35898509 0 .65.29101491.65.65z" fill="#fff"/></g></svg>