<svg height="20" viewBox="0 0 20 20" width="20" xmlns="http://www.w3.org/2000/svg"><g fill="none" fill-rule="evenodd"><circle cx="10" cy="10" r="10"/><path d="m8 13.5h-1.0770861c-.66863905 0-.91110373-.0696192-1.15554818-.2003495-.24444444-.1307303-.43628587-.3225718-.56701619-.5670162-.13073032-.2444445-.20034953-.4869091-.20034953-1.1555482v-3.6541722c0-.66863905.06961921-.91110373.20034953-1.15554818.13073032-.24444444.32257175-.43628587.56701619-.56701619.24444445-.13073032.48690913-.20034953 1.15554818-.20034953h6.1541722c.6686391 0 .9111037.06961921 1.1555482.20034953.2444444.13073032.4362859.32257175.5670162.56701619.1307303.24444445.2003495.48690913.2003495 1.15554818v3.6541722c0 .6686391-.0696192.9111037-.2003495 1.1555482-.1307303.2444444-.3225718.4362859-.5670162.5670162-.2444445.1307303-.4869091.2003495-1.1555482.2003495h-2.0770861l-2.06109127 2.0610913c-.21478836.2147883-.5630291.2147883-.77781746 0-.10314501-.103145-.16109127-.2430397-.16109127-.3889088z" fill="#fff" fill-rule="nonzero"/></g></svg>