<svg height="20" viewBox="0 0 20 20" width="20" xmlns="http://www.w3.org/2000/svg"><g fill="none"><circle cx="10" cy="10" r="10"/><g transform="translate(3 3)"><g transform="translate(4 3)"><path d="m3 .75c-1.24264069 0-2.25 1.00735931-2.25 2.25v3c0 1.24264069 1.00735931 2.25 2.25 2.25s2.25-1.00735931 2.25-2.25v-3c0-1.24264069-1.00735931-2.25-2.25-2.25z" stroke="#fff" stroke-width="1.5"/><g fill="#fff"><path d="m2.25 8h1.5v1.77147233c0 .16406157-.03016832.29007657-.08681813.39600257-.0566498.1059259-.13978109.1890572-.24570702.245707-.10592592.0566498-.23194095.0868181-.39600252.0868181h-.04294466c-.16406157 0-.2900766-.0301683-.39600252-.0868181-.10592593-.0566498-.18905722-.1397811-.24570702-.245707-.05664981-.105926-.08681813-.231941-.08681813-.39600257z"/><path d="m0 4h2.39202428c.18328499 0 .27070566.0232064.35218715.06678318.08148148.04357677.14542862.10752391.18900539.18900539.04357678.08148149.06678318.16890216.06678318.35218715v.18404856c0 .18328499-.0232064.27070566-.06678318.35218715-.04357677.08148148-.10752391.14542862-.18900539.18900539-.08148149.04357678-.16890216.06678318-.35218715.06678318h-2.39202428z"/></g></g><path d="m2.5 6v2.84202428c0 .29699911-.04641281.48343561-.13356635.64639857-.08715355.16296296-.21504784.29085725-.3780108.3780108-.16296296.08715354-.34939946.13356635-.64639857.13356635h-.18404856c-.29699911 0-.48343561-.04641281-.64639857-.13356635-.16296296-.08715355-.29085725-.21504784-.3780108-.3780108-.08715354-.16296296-.13356635-.34939946-.13356635-.64639857v-1.56008168c0-.44575937.04641281-.60740249.13356635-.77036545.08715355-.16296296.21504784-.29085725.3780108-.3780108.12282399-.06568699.24489825-.10823109.48842855-.12520389-.0000038-.00278704-.0000057-.00557453-.0000057-.00836246 0-3.3137085 2.6862915-6 6-6s6 2.6862915 6 6c0 .00278793-.0000019.00557542-.0000057.00836246.2435303.0169728.3656046.0595169.4884286.12520389.1629629.08715355.2908572.21504784.3780107.3780108.0871536.16296296.1335664.32460608.1335664.77036545v1.56008168c0 .29699911-.0464128.48343561-.1335664.64639857-.0871535.16296296-.2150478.29085725-.3780107.3780108-.162963.08715354-.3493995.13356635-.6463986.13356635h-.1840486c-.2969991 0-.4834356-.04641281-.6463986-.13356635-.1629629-.08715355-.2908572-.21504784-.3780107-.3780108-.0871536-.16296296-.1335664-.34939946-.1335664-.64639857v-2.84202428c0-2.48528137-2.01471863-4.5-4.5-4.5s-4.5 2.01471863-4.5 4.5z" fill="#fff"/></g></g></svg>