<svg height="20" viewBox="0 0 20 20" width="20" xmlns="http://www.w3.org/2000/svg"><g fill="none" fill-rule="evenodd"><circle cx="10" cy="10" r="10"/><path d="m10 4.5c1.3807119 0 2.5 1.11928813 2.5 2.5s-1.1192881 2.5-2.5 2.5c-1.38071187 0-2.5-1.11928813-2.5-2.5s1.11928813-2.5 2.5-2.5zm-4.5 9.25c0-1.75 2-2.75 4.5-2.75s4.5 1 4.5 2.75v.2885431c0 .3343195-.0348096.4555518-.1001748.577774-.0653651.1222223-.1612858.218143-.2835081.2835081-.1222222.0653652-.2434545.1001748-.577774.1001748h-7.07708615c-.33431953 0-.45555187-.0348096-.57777409-.1001748-.12222222-.0653651-.21814294-.1612858-.2835081-.2835081-.06536516-.1222222-.10017476-.2434545-.10017476-.577774z" fill="#fff" fill-rule="nonzero"/></g></svg>