<svg height="20" viewBox="0 0 20 20" width="20" xmlns="http://www.w3.org/2000/svg"><g fill="none"><circle cx="10" cy="10" r="10"/><path d="m.02136772 9.34579573c1.14152081 1.08116567 2.94685733 1.77920427 4.97863228 1.77920427s3.83711147-.6980386 4.97863228-1.77920427c.01414023.09192934.02136772.18506039.02136772.27920427 0 1.6568542-2.23857625 3-5 3s-5-1.3431458-5-3c0-.09414388.00722749-.18727493.02136772-.27920427zm0-2.99887852c1.14152081 1.08116563 2.94685733 1.77920427 4.97863228 1.77920427s3.83711147-.69803864 4.97863228-1.77920427c.01414023.09192935.02136772.18506039.02136772.27920427 0 1.65685425-2.23857625 3-5 3s-5-1.34314575-5-3c0-.09414388.00722749-.18727492.02136772-.27920427zm4.97863228.27808279c-2.76142375 0-5-1.34314575-5-3s2.23857625-3 5-3 5 1.34314575 5 3-2.23857625 3-5 3z" fill="#fff" transform="translate(5 3.375)"/></g></svg>