<svg height="20" viewBox="0 0 20 20" width="20" xmlns="http://www.w3.org/2000/svg"><g fill="none" fill-rule="evenodd"><circle cx="10" cy="10" r="10"/><path d="m12.9877665 9.51903791-4.46982182 4.46979559c-.2778919.2778902-.37173289.3626735-.48550855.4490713-.11377565.0863977-.22480091.151725-.35558092.2092238-.13078.0574987-.2504676.0983556-.62834507.20632l-2.22895874.6368416c-.13312165.0380345-.27187134-.0390482-.30990609-.172169-.01286041-.0450112-.01286041-.0927241 0-.1377353l.63684535-2.2289456c.10796499-.3778753.14882212-.4975622.20632124-.6283414.05749911-.1307792.12282675-.2418039.209225-.3555788.08639825-.113775.17118207-.2076155.44907397-.4855057l4.46982173-4.4697956c.0781056-.07810348.204738-.07810348.2828436 0l2.2239903 2.22397722c.0781059.0781038.0781063.2047368.0000016.28284189-.0000003.00000027-.0000005.00000055-.0000016 0zm-.4864301-4.52721105c.3160611-.31605923.463581-.39776161.6409236-.45151318.1773425-.05375157.3587067-.05375157.5360493 0 .1773425.05375157.3248624.13545395.6409235.45151318l.6889375.68893344c.316061.31605922.3977639.46357826.4515158.64091975s.0537519.35870467 0 .53604616-.1354548.32486053-.4515158.64091975l-.6740008.67399679c-.0781056.07810347-.2047379.07810347-.2828435 0l-2.2239903-2.22397723c-.0781059-.0781038-.0781063-.20473679-.0000017-.28284188.0000003-.00000028.0000006-.00000055.0000017 0z" fill="#fff"/></g></svg>