<svg height="20" viewBox="0 0 20 20" width="20" xmlns="http://www.w3.org/2000/svg"><g fill="none" fill-rule="evenodd"><circle cx="10" cy="10" r="10"/><path d="m8.54880011 13.8075355c-.47784098.4144215-.9953786.7842793-1.54614636 1.1031069-.12825467.0742439-.28378014.1555954-.46657639.2440545l.00002812.0000581c-.24859924.1203026-.54765329.0162977-.66795591-.2323016-.06120618-.1264794-.06637653-.2728736-.01424574-.4033559.07847882-.1964308.14092134-.3684383.18732756-.5160226.143171-.4553222.25464915-.9246879.33184847-1.4055111-.85096731-.8068153-1.37307986-1.8973139-1.37307986-3.0975638 0-2.48528137 2.23857625-4.5 5-4.5 2.7614237 0 5 2.01471863 5 4.5 0 2.4852814-2.2385763 4.5-5 4.5-.50468924 0-.99191394-.0672971-1.45119989-.1924645z" fill="#fff"/></g></svg>