<svg height="20" viewBox="0 0 20 20" width="20" xmlns="http://www.w3.org/2000/svg"><g fill="none" fill-rule="evenodd"><circle cx="10" cy="10" r="10"/><path d="m12 6v-1.23300702c0-.28718807.2328119-.52.52-.52.1093098 0 .2158399.03444694.3044551.09844681l2.8785849 2.07897796c.3178853.22958383.3894677.67339524.1598839.99128054-.0444117.06149321-.0983907.1154722-.1598839.15988396l-2.8785849 2.07897796c-.2328174.16814591-.5578624.1157193-.7260083-.11709811-.0639999-.08861519-.0984468-.19514528-.0984468-.30445508v-1.23300702h-3.91034879c-.37889546 0-.51629212.03945088-.65481063.1135314-.13851852.07408051-.24722867.18279066-.32130918.32130918-.07408052.13851851-.1135314.27591517-.1135314.65481063v2.82069759c0 .3788955.03945088.5162921.1135314.6548106.07408051.1385185.18279066.2472287.32130918.3213092.13851851.0740805.27591517.1135314.65481063.1135314h3.91034879c.5522847 0 1 .4477153 1 1s-.4477153 1-1 1h-3.47465785c-1.22583827 0-1.67035684-.1276352-2.11850499-.3673075-.44814815-.2396722-.79985744-.5913815-1.03952969-1.0395297-.23967225-.4481481-.36730747-.8926667-.36730747-2.1185049v-1.94931575c0-1.22583827.12763522-1.67035684.36730747-2.11850499s.59138154-.79985744 1.03952969-1.03952969.89266672-.36730747 2.11850499-.36730747z" fill="#fff" fill-rule="nonzero"/></g></svg>