<svg width="18" height="18" xmlns="http://www.w3.org/2000/svg"><g fill="none" fill-rule="evenodd"><path d="M0 0h18v18H0z"/><path d="M6.994 3.245l.348-.348c.576-.576.846-.725 1.169-.823.324-.099.654-.099.978 0 .323.098.593.247 1.17.823l.347.348a.913.913 0 0 0 .645.267h.492c.815 0 1.11.085 1.409.245.298.159.532.393.691.691.16.298.245.594.245 1.41v.49c0 .243.096.475.267.646l.348.348c.576.576.725.846.823 1.169.099.324.099.654 0 .978-.098.323-.247.593-.823 1.17l-.348.347a.913.913 0 0 0-.267.645v.492c0 .815-.085 1.11-.245 1.409-.159.298-.393.532-.691.691-.298.16-.594.245-1.41.245h-.49a.913.913 0 0 0-.646.267l-.348.348c-.576.576-.846.725-1.169.823a1.662 1.662 0 0 1-.978 0c-.323-.098-.593-.247-1.17-.823l-.347-.348a.913.913 0 0 0-.645-.267h-.492c-.815 0-1.11-.085-1.409-.245a1.662 1.662 0 0 1-.691-.691c-.16-.298-.245-.594-.245-1.41v-.49a.913.913 0 0 0-.267-.646l-.348-.348c-.576-.576-.725-.846-.823-1.169a1.662 1.662 0 0 1 0-.978c.098-.323.247-.593.823-1.17l.348-.347a.913.913 0 0 0 .267-.645v-.492c0-.815.085-1.11.245-1.409.159-.298.393-.532.691-.691.298-.16.594-.245 1.41-.245h.49a.913.913 0 0 0 .646-.267zM6.78 8.72a.75.75 0 0 0-1.06 1.06l1.75 1.75a.75.75 0 0 0 1.06 0l3.75-3.75a.75.75 0 0 0-1.06-1.06L8 9.94 6.78 8.72z" fill="#7D9CB8"/></g></svg>