<svg height="20" viewBox="0 0 20 20" width="20" xmlns="http://www.w3.org/2000/svg"><g fill="none" fill-rule="evenodd"><circle cx="10" cy="10" r="10"/><path d="m14 5c.5522847 0 1 .44771525 1 1v8c0 .5522847-.4477153 1-1 1s-1-.4477153-1-1v-8c0-.55228475.4477153-1 1-1zm-8 5c.55228475 0 1 .4477153 1 1v3c0 .5522847-.44771525 1-1 1s-1-.4477153-1-1v-3c0-.5522847.44771525-1 1-1zm4-2.5c.5522847 0 1 .44771525 1 1v5.5c0 .5522847-.4477153 1-1 1-.55228475 0-1-.4477153-1-1v-5.5c0-.55228475.44771525-1 1-1z" fill="#fff"/></g></svg>