<svg height="20" viewBox="0 0 20 20" width="20" xmlns="http://www.w3.org/2000/svg"><g fill="none"><path d="m10 20c5.5228475 0 10-4.4771525 10-10s-4.4771525-10-10-10-10 4.4771525-10 10 4.4771525 10 10 10z"/><path d="m6.25460192 8h2.45442678c.22287968 0 .30370124.0232064.38518273.06678318.08148148.04357677.14542862.10752391.18900539.18900539.04357678.08148149.06678318.16230305.06678318.38518273v1.7180574c0 .2228797-.0232064.3037012-.06678318.3851827-.04357677.0814815-.10752391.1454287-.18900539.1890054-.08148149.0435768-.16230305.0667832-.38518273.0667832h-3.0680574c-.22287968 0-.30370124-.0232064-.38518273-.0667832-.08148148-.0435767-.14542862-.1075239-.18900539-.1890054-.04357678-.0814815-.06678318-.162303-.06678318-.3851827v-1.10442678c0-.41295055.04641281-.58006181.13356635-.74302477.08715355-.16296296.21504784-.29085725.3780108-.3780108.16296296-.08715354.33007422-.13356635.74302477-.13356635zm5.03636938 0h2.4544268c.4129505 0 .5800618.04641281.7430248.13356635.1629629.08715355.2908572.21504784.3780107.3780108.0871536.16296296.1335664.33007422.1335664.74302477v1.10442678c0 .2228797-.0232064.3037012-.0667832.3851827-.0435767.0814815-.1075239.1454287-.1890054.1890054-.0814815.0435768-.162303.0667832-.3851827.0667832h-3.0680574c-.2228797 0-.3037012-.0232064-.3851827-.0667832-.0814815-.0435767-.1454287-.1075239-.1890054-.1890054-.0435768-.0814815-.0667832-.162303-.0667832-.3851827v-1.7180574c0-.22287968.0232064-.30370124.0667832-.38518273.0435767-.08148148.1075239-.14542862.1890054-.18900539.0814815-.04357678.162303-.06678318.3851827-.06678318zm-4.65 4.3h2.0680574c.22287968 0 .30370124.0232064.38518273.0667832.08148148.0435767.14542862.1075239.18900539.1890054.04357678.0814815.06678318.162303.06678318.3851827v2.4180574c0 .2228797-.0232064.3037012-.06678318.3851827-.04357677.0814815-.10752391.1454287-.18900539.1890054-.08148149.0435768-.16230305.0667832-.38518273.0667832h-1.4270861c-.44575937 0-.60740249-.0464128-.77036545-.1335664-.16296296-.0871535-.29085725-.2150478-.3780108-.3780107-.08715354-.162963-.13356635-.3246061-.13356635-.7703655v-1.7770861c0-.2228797.0232064-.3037012.06678318-.3851827.04357677-.0814815.10752391-.1454287.18900539-.1890054.08148149-.0435768.16230305-.0667832.38518273-.0667832zm4.65 0h2.0680574c.2228797 0 .3037012.0232064.3851827.0667832.0814815.0435767.1454287.1075239.1890054.1890054.0435768.0814815.0667832.162303.0667832.3851827v1.7770861c0 .4457594-.0464128.6074025-.1335664.7703655-.0871535.1629629-.2150478.2908572-.3780107.3780107-.162963.0871536-.3246061.1335664-.7703655.1335664h-1.4270861c-.2228797 0-.3037012-.0232064-.3851827-.0667832-.0814815-.0435767-.1454287-.1075239-.1890054-.1890054-.0435768-.0814815-.0667832-.162303-.0667832-.3851827v-2.4180574c0-.2228797.0232064-.3037012.0667832-.3851827.0435767-.0814815.1075239-.1454287.1890054-.1890054.0814815-.0435768.162303-.0667832.3851827-.0667832zm-1.2909713-5.3c-3.5 0-3.8-2.2-3-3s3-.5 3 3zm0 0c0-3.5 2.2-3.80265306 3-3.00265306s.5 3.00265306-3 3.00265306z" fill="#fff"/></g></svg>