<svg height="20" viewBox="0 0 20 20" width="20" xmlns="http://www.w3.org/2000/svg"><g fill="none" fill-rule="evenodd"><circle cx="10" cy="10" r="10"/><path d="m12.7295033 12.6518428c.1573607-.1645417.2922725-.3512837.4031892-.55868.2396723-.4481481.3673075-.8926667.3673075-2.11850495v-2.97465785h.8975718c.5571992 0 .7592531.05801601.9629568.16695794s.3635715.26880979.4725135.4725135c.1089419.2037037.1669579.4057576.1669579.96295681v6.04498595c0 .0925828-.0366826.181394-.1020172.2469909-.1364093.1369572-.3580166.1374013-.4949737.000992l-1.9030091-1.8953971h-.760689c-.082779-.0001153-.1498847-.067221-.1498847-.15 0-.0425665.0180989-.0831254.0497799-.1115546.0351388-.0315322.0652378-.0603998.0902971-.0866026zm-6.2295033-.6518428-1.90300909 1.8953971c-.13695714.1364093-.35856444.1359652-.49497375-.000992-.06533456-.0655969-.10201716-.1544081-.10201716-.2469909v-6.04498595c0-.55719921.05801601-.75925311.16695794-.96295681.10894193-.20370371.26880979-.36357157.4725135-.4725135.2037037-.10894193.4057576-.16695794.96295681-.16695794h4.79514355c.5571992 0 .7592531.05801601.9629568.16695794s.3635715.26880979.4725135.4725135c.1089419.2037037.1669579.4057576.1669579.96295681v2.79514355c0 .5571992-.058016.7592531-.1669579.9629568-.108942.2037037-.2688098.3635715-.4725135.4725135-.2037037.1089419-.4057576.1669579-.9629568.1669579z" fill="#fff" fill-rule="nonzero"/></g></svg>