<svg height="20" viewBox="0 0 20 20" width="20" xmlns="http://www.w3.org/2000/svg"><g fill="none"><circle cx="10" cy="10" r="10"/><path d="m13 8.5 2.2040325-1.10201626c.2716882-.13584409.6020584-.0257207.7379025.24596748.0381852.07637049.058065.16058267.058065.24596747v4.22016261c0 .3037566-.2462434.55-.55.55-.0853848 0-.169597-.0198798-.2459675-.058065l-2.2040325-1.1020163v.5770861c0 .6686391-.0696192.9111037-.2003495 1.1555482-.1307303.2444444-.3225718.4362859-.5670162.5670162-.2444445.1307303-.4869091.2003495-1.1555482.2003495h-4.1541722c-.66863905 0-.91110373-.0696192-1.15554818-.2003495-.24444444-.1307303-.43628587-.3225718-.56701619-.5670162-.13073032-.2444445-.20034953-.4869091-.20034953-1.1555482v-4.1541722c0-.66863905.06961921-.91110373.20034953-1.15554818.13073032-.24444444.32257175-.43628587.56701619-.56701619.24444445-.13073032.48690913-.20034953 1.15554818-.20034953h4.1541722c.6686391 0 .9111037.06961921 1.1555482.20034953.2444444.13073032.4362859.32257175.5670162.56701619.1307303.24444445.2003495.48690913.2003495 1.15554818z" fill="#fff"/></g></svg>