<svg height="20" viewBox="0 0 20 20" width="20" xmlns="http://www.w3.org/2000/svg"><path d="m5.46423835 6.68569534c-.05082054-.02032821-.09108899-.06059667-.11141721-.1114172-.04102268-.10255671.0088605-.2189508.11141721-.25997348l4.38720538-1.75488215c.09536441-.03814577.20174817-.03814577.29711257 0l4.3872054 1.75488215c.0508205.02032821.0910889.06059667.1114172.1114172.0410226.10255671-.0088605.2189508-.1114172.25997348l-4.3872054 1.75488215c-.0953644.03814577-.20174816.03814577-.29711257 0zm-.18996021 1.92401591 4.57716559 1.83086625c.09536441.0381458.20174817.0381458.29711257 0l4.5771656-1.83086625c.1025567-.04102268.2189508.0088605.2599734.11141721.0094497.02362405.0143047.04883425.0143047.07427813v4.43378021c0 .1635619-.0995804.3106454-.2514437.3713907l-4.6 1.84c-.0953644.0381458-.20174816.0381458-.29711257 0l-4.6-1.84c-.15186335-.0607453-.25144373-.2078288-.25144373-.3713907v-4.43378021c0-.11045695.08954305-.2.2-.2.02544389 0 .05065408.00485504.07427814.01430466z" fill="#fff"/></svg>