<svg height="20" viewBox="0 0 20 20" width="20" xmlns="http://www.w3.org/2000/svg"><g fill="none"><circle cx="10" cy="10" r="10"/><path d="m14.5 9.5h-9v2.7180574c0 .4457594.04641281.6074025.13356635.7703655.08715355.1629629.21504784.2908572.3780108.3780107.16296296.0871536.32460608.1335664.77036545.1335664h5.2180574v-1.483007c0-.2871881.2328119-.52.52-.52.1093098 0 .2158399.0344469.3044551.0984468l2.8785849 2.0789779c.3178853.2295839.3894677.6733953.1598839.9912806-.0444117.0614932-.0983907.1154722-.1598839.159884l-2.8785849 2.0789779c-.2328174.1681459-.5578624.1157193-.7260083-.1170981-.0639999-.0886152-.0984468-.1951453-.0984468-.3044551v-1.483007h-4.7951435c-1.11439842 0-1.51850622-.116032-1.92591363-.3339159-.40740741-.2178838-.72714312-.5376196-.94502699-.945027s-.33391588-.8115152-.33391588-1.9259136v-3.590287c0-1.11439842.11603201-1.51850622.33391588-1.92591363s.53761958-.72714312.94502699-.94502699.81151521-.33391588 1.92591363-.33391588h5.590287c1.1143984 0 1.5185062.11603201 1.9259136.33391588s.7271432.53761958.945027.94502699c.2178839.40740741.3339159.81151521.3339159 1.92591363v2.0451435c0 .4142136-.3357864.75-.75.75s-.75-.3357864-.75-.75zm0-1.5v-.2180574c0-.44575937-.0464128-.60740249-.1335664-.77036545-.0871535-.16296296-.2150478-.29085725-.3780107-.3780108-.162963-.08715354-.3246061-.13356635-.7703655-.13356635h-6.4361148c-.44575937 0-.60740249.04641281-.77036545.13356635-.16296296.08715355-.29085725.21504784-.3780108.3780108-.08715354.16296296-.13356635.32460608-.13356635.77036545v.2180574z" fill="#fff"/></g></svg>