<svg height="20" viewBox="0 0 20 20" width="20" xmlns="http://www.w3.org/2000/svg"><g fill="none" fill-rule="evenodd"><circle cx="10" cy="10" r="10"/><path d="m7 8.5h-.50306748c-.10466174 0-.19338947.02088576-.2667228.06010486-.07333334.03921909-.13088577.09677152-.17010486.17010486-.0392191.07333333-.06010486.16206106-.06010486.27285776 0 .10466174.02088576.19338947.06010486.2667228.03921909.07333334.09677152.13088577.17010486.17010486.07333333.0392191.16206106.06010486.2667228.06010486h.50306748v.5030675c0 .1046617.02088576.1933894.06010486.2667228.03921909.0733333.09677152.1308857.17010486.1701048.07333333.0392191.16206106.0601049.27285776.0601049.10466174 0 .19338947-.0208858.2667228-.0601049.07333334-.0392191.13088577-.0967715.17010486-.1701048.0392191-.0733334.06010486-.1620611.06010486-.2667228v-.5030675h.50306748c.10466174 0 .19338947-.02088576.2667228-.06010486.07333334-.03921909.13088577-.09677152.17010486-.17010486.0392191-.07333333.06010486-.16206106.06010486-.27285776 0-.10466174-.02088576-.19338947-.06010486-.2667228-.03921909-.07333334-.09677152-.13088577-.17010486-.17010486-.07333333-.0392191-.16206106-.06010486-.2667228-.06010486h-.50306748v-.50306748c0-.10466174-.02088576-.19338947-.06010486-.2667228-.03921909-.07333334-.09677152-.13088577-.17010486-.17010486-.07333333-.0392191-.16206106-.06010486-.27285776-.06010486-.10466174 0-.19338947.02088576-.2667228.06010486-.07333334.03921909-.13088577.09677152-.17010486.17010486-.0392191.07333333-.06010486.16206106-.06010486.2667228zm4.5 3h-3c-2 0-2 2.5-3.2 2.5-.8 0-1.3-1-1.3-2.3 0-1.7.5-5.7 3.5-5.7h5c3 0 3.5 4 3.5 5.7 0 1.3-.5 2.3-1.3 2.3-1.2 0-1.2-2.5-3.2-2.5zm.9969325-3c-.1046617 0-.1933894.02088576-.2667228.06010486-.0733333.03921909-.1308857.09677152-.1701048.17010486-.0392191.07333333-.0601049.16206106-.0601049.27285776 0 .10466174.0208858.19338947.0601049.2667228.0392191.07333334.0967715.13088577.1701048.17010486.0733334.0392191.1620611.06010486.2667228.06010486h1.006135c.1046617 0 .1933894-.02088576.2667228-.06010486.0733333-.03921909.1308857-.09677152.1701048-.17010486.0392191-.07333333.0601049-.16206106.0601049-.27285776 0-.10466174-.0208858-.19338947-.0601049-.2667228-.0392191-.07333334-.0967715-.13088577-.1701048-.17010486-.0733334-.0392191-.1620611-.06010486-.2667228-.06010486z" fill="#fff" fill-rule="nonzero"/></g></svg>