<svg width="13" height="12" viewBox="0 0 13 12" xmlns="http://www.w3.org/2000/svg"><path d="M10 3.6h-.524c-1.585 0-2.58 1.385-3.717 2.778C4.495 7.928 3.367 10 .826 10H0V8.4h.826c1.519-.037 2.46-1.632 3.575-3C5.666 3.853 6.936 2 9.484 2H10V0l3 2.75-3 2.75V3.6zm0 4.8V6.5l3 2.75L10 12v-2h-.516c-1.603 0-2.7-.733-3.609-1.662A57.729 57.729 0 0 1 6.84 6.92c.76.844 1.562 1.48 2.636 1.48H10zM3.282 5.18C2.57 4.32 1.822 3.625.826 3.6H0V2h.826c1.566 0 2.595.787 3.45 1.753l-.494.706c-.168.238-.335.48-.5.722z" fill="#B4C8E0" fill-rule="evenodd"/></svg>