<svg height="20" viewBox="0 0 20 20" width="20" xmlns="http://www.w3.org/2000/svg"><g fill="none" fill-rule="evenodd"><circle cx="10" cy="10" r="10"/><path d="m7.24339955 6.5h-.24339955c.75 0 .75-1 1.5-1h1.5 1.5c.75 0 .75 1 1.5 1h-.2433995c.7800788 0 1.0629543.08122241 1.3481395.23374112.2851852.1525187.5090002.3763337.6615189.66151889.1525187.28518518.2337411.56806064.2337411 1.34813954v3.01320095c0 .7800788-.0812224 1.0629543-.2337411 1.3481395s-.3763337.5090002-.6615189.6615189-.5680607.2337411-1.3481395.2337411h-5.51320095c-.7800789 0-1.06295436-.0812224-1.34813954-.2337411-.28518519-.1525187-.50900019-.3763337-.66151889-.6615189-.15251871-.2851852-.23374112-.5680607-.23374112-1.3481395v-3.01320095c0-.7800789.08122241-1.06295436.23374112-1.34813954.1525187-.28518519.3763337-.50900019.66151889-.66151889.28518518-.15251871.56806064-.23374112 1.34813954-.23374112zm2.75660045.75c-1.51878306 0-2.75 1.23121694-2.75 2.75 0 1.5187831 1.23121694 2.75 2.75 2.75 1.5187831 0 2.75-1.2312169 2.75-2.75 0-1.51878306-1.2312169-2.75-2.75-2.75zm0 1.25c.8284271 0 1.5.67157288 1.5 1.5 0 .8284271-.6715729 1.5-1.5 1.5-.82842712 0-1.5-.6715729-1.5-1.5 0-.82842712.67157288-1.5 1.5-1.5z" fill="#fff" fill-rule="nonzero"/></g></svg>