<svg height="20" viewBox="0 0 20 20" width="20" xmlns="http://www.w3.org/2000/svg"><g fill="none" fill-rule="evenodd"><path d="m0 0h20v20h-20z" fill-rule="nonzero"/><g transform="translate(2 1)"><path d="m0 1h16v16h-16z" fill-rule="nonzero"/><path d="m7 10v5h-3.7180574c-.44575937 0-.60740249-.0464128-.77036545-.1335664-.16296296-.0871535-.29085725-.2150478-.3780108-.3780107-.08715354-.162963-.13356635-.3246061-.13356635-.7703655v-3.7180574zm7 0v3.7180574c0 .4457594-.0464128.6074025-.1335664.7703655-.0871535.1629629-.2150478.2908572-.3780107.3780107-.162963.0871536-.3246061.1335664-.7703655.1335664h-3.7180574v-5zm-7-5v4h-6v-2.7180574c0-.44575937.04641281-.60740249.13356635-.77036545.08715355-.16296296.21504784-.29085725.3780108-.3780108.16296296-.08715354.32460608-.13356635.77036545-.13356635zm6.7180574 0c.4457594 0 .6074025.04641281.7703655.13356635.1629629.08715355.2908572.21504784.3780107.3780108.0871536.16296296.1335664.32460608.1335664.77036545v2.7180574h-6v-4z" fill="#7d9cb8"/><g fill-rule="nonzero"><g transform="translate(8)"><path d="m0 0h5v5h-5z"/><path d="m.64666457 4.35333543c3.17576576-.21815664 4.38793304-2.03485435 3.21139369-3.21139369-1.17653934-1.17653935-2.99323705.03562793-3.21139369 3.21139369z" stroke="#7d9cb8" stroke-width="1.25"/></g><g transform="matrix(-1 0 0 1 8 0)"><path d="m0 0h5v5h-5z"/><path d="m.64666457 4.35333543c3.17576576-.21815664 4.38793304-2.03485435 3.21139369-3.21139369-1.17653934-1.17653935-2.99323705.03562793-3.21139369 3.21139369z" stroke="#7d9cb8" stroke-width="1.25"/></g></g></g></g></svg>