<svg height="20" viewBox="0 0 20 20" width="20" xmlns="http://www.w3.org/2000/svg"><g fill="none"><rect height="20" rx="10" width="20"/><path d="m7.5 6.84c1.12702229-.69 1.89995338-1.90674731 1.99098159-3.31089496 1.63618301.82172097 2.75901841 2.51518184 2.75901841 4.47089496 0 .57581839-.0973368 1.12890257-.276454 1.64369624.8491946-.25634003 1.507718-.95220891 1.7110365-1.82307264.8128106.81413324 1.3154175 1.93805976 1.3154175 3.1793764 0 1.9593282-1.2522114 3.6261868-3 4.2439414-1.7477886-.6177546-3-2.2846132-3-4.2439414 0-.0497082.00080597-.0992281.00240555-.1485474-.62379574.7054708-1.00240555 1.6327946-1.00240555 2.6485474 0 .4851417.08636803.9501111.24456706 1.3803711-1.86193989-.4516509-3.24456706-2.129546-3.24456706-4.1303711 0-1.59393631.87746294-2.98293017 2.17569566-3.71028842z" fill="#fff"/></g></svg>