<svg height="18" width="18" xmlns="http://www.w3.org/2000/svg"><path d="M9 1.5c.5523 0 1 .4477 1 1a.9985.9985 0 01-.3999.8l-.0005.7356c.4784.0572.936.1819 1.3631.3643l.3671-.6374a.9985.9985 0 01.0542-.8917c.2761-.4783.8877-.6421 1.366-.366.4783.2762.6422.8877.366 1.366a.9985.9985 0 01-.7463.4929l-.3675.6376c.3772.2836.7129.6193.9965.9965l.6377-.3687a.9985.9985 0 01.4928-.7451c.4783-.2762 1.0898-.1123 1.366.366.2761.4783.1123 1.0899-.366 1.366a.9985.9985 0 01-.8928.0537l-.6363.3676c.1823.4268.307.884.3642 1.362l.7364-.0004A.9985.9985 0 0115.5 8c.5523 0 1 .4477 1 1s-.4477 1-1 1a.9985.9985 0 01-.8-.3999l-.7356-.0005a4.9665 4.9665 0 01-.3643 1.3631l.6374.3671a.9985.9985 0 01.8917.0542c.4783.2761.6421.8877.366 1.366-.2762.4783-.8877.6422-1.366.366a.9985.9985 0 01-.4929-.7463l-.6376-.3675a5.0293 5.0293 0 01-.9965.9965l.3687.6377a.9985.9985 0 01.7451.4928c.2762.4783.1123 1.0898-.366 1.366-.4783.2761-1.0899.1123-1.366-.366a.9985.9985 0 01-.0537-.8928l-.3676-.6363a4.9665 4.9665 0 01-1.362.3642l.0004.7364A.9985.9985 0 0110 15.5c0 .5523-.4477 1-1 1s-1-.4477-1-1c0-.3271.157-.6175.3999-.8l.0005-.7356a4.9665 4.9665 0 01-1.3631-.3643l-.3671.6374a.9985.9985 0 01-.0542.8917c-.2761.4783-.8877.6421-1.366.366-.4783-.2762-.6422-.8877-.366-1.366a.9985.9985 0 01.7463-.4929l.3675-.6376a5.0293 5.0293 0 01-.9965-.9965l-.6377.3687a.9985.9985 0 01-.4928.7451c-.4783.2762-1.0898.1123-1.366-.366-.2761-.4783-.1123-1.0899.366-1.366a.9985.9985 0 01.8928-.0537l.6363-.3676a4.9665 4.9665 0 01-.3642-1.362l-.7364.0004A.9985.9985 0 012.5 10c-.5523 0-1-.4477-1-1s.4477-1 1-1c.3271 0 .6175.157.8.3999l.7356.0005a4.9665 4.9665 0 01.3643-1.3631l-.6374-.3671a.9985.9985 0 01-.8917-.0542c-.4783-.2761-.6421-.8877-.366-1.366.2762-.4783.8877-.6422 1.366-.366a.9985.9985 0 01.4929.7463l.6376.3675a5.0293 5.0293 0 01.9965-.9965l-.3687-.6377a.9985.9985 0 01-.7451-.4928c-.2762-.4783-.1123-1.0898.366-1.366.4783-.2761 1.0899-.1123 1.366.366a.9985.9985 0 01.0537.8928l.3676.6363a4.9665 4.9665 0 011.362-.3642l-.0004-.7364A.9985.9985 0 018 2.5c0-.5523.4477-1 1-1z" fill="#7d9cb8" fill-rule="evenodd"/></svg>