<svg height="20" viewBox="0 0 20 20" width="20" xmlns="http://www.w3.org/2000/svg"><g fill="none" fill-rule="evenodd"><circle cx="10" cy="10" r="10"/><path d="m8.85510428 11.6858156c0-.4056758.09632176-.7632372.28896817-1.072695s.51728641-.65401705.97392975-1.03368798c.2758887-.22884275.4804238-.40827358.6136114-.53829787.1331877-.13002429.2425901-.27564931.3282108-.43687943.0856206-.16123012.1284303-.3432614.1284303-.54609929 0-.22884275-.0582688-.42777693-.1748079-.59680851-.1165392-.16903158-.273508-.29905392-.4709111-.39007092-.1974031-.09101701-.4102623-.13652483-.638584-.13652483-.55177736 0-.99176565.23404022-1.31997804.70212766-.13318764.15082818-.25448171.25874672-.36388584.32375887-.10940414.06501214-.24258978.09751773-.39956093.09751773-.26161857 0-.46377535-.08581475-.6064764-.25744681-.14270104-.17163206-.21405049-.38226826-.21405049-.63191489 0-.2392447.05707956-.47588536.1712404-.70992908.11416083-.23404373.27112962-.44728036.47091108-.63971631.27113198-.26004859.61717682-.46158321 1.0381449-.60460993.42096807-.14302672.90257687-.21453901 1.44484082-.21453901.6611815 0 1.2474362.11571988 1.7587816.34716312s.908524.56560065 1.1915477 1.00248227c.2830238.43688162.4245335.95697098.4245335 1.56028369 0 .4212787-.0689711.7879417-.2069155 1.1-.1379443.3120583-.3175071.58120454-.5386937.80744681-.2211866.22624231-.5053953.47198451-.8526345.73723401-.3139423.2496467-.5470172.4628833-.6992316.6397163-.1522144.1768331-.2806435.3952706-.3852909.6553192-.1046474.1976369-.1938342.3510633-.2675631.4602837s-.1712398.1976356-.2925357.2652482-.27469719.1014184-.46020855.1014184c-.30442889 0-.53750376-.0923158-.69923161-.2769503s-.24259056-.4225754-.24259056-.7138298zm-.32107574 3.0815603c0-.2444457.0558904-.4602828.16767289-.6475177.11178248-.187235.26280549-.3315598.45307354-.4329788.19026806-.1014189.39955978-.1521276.62788145-.1521276.22832168 0 .43761338.0507087.62788148.1521276.190268.101419.3401019.2457438.449506.4329788.1094041.1872349.1641054.403072.1641054.6475177s-.0547013.4602827-.1641054.6475177-.259238.3315598-.449506.4329787c-.1902681.101419-.3995598.1521277-.62788148.1521277-.22832167 0-.43761339-.0507087-.62788145-.1521277-.19026805-.1014189-.34129106-.2457437-.45307354-.4329787-.11178249-.187235-.16767289-.403072-.16767289-.6475177z" fill="#fff" fill-rule="nonzero"/></g></svg>