<svg height="20" viewBox="0 0 20 20" width="20" xmlns="http://www.w3.org/2000/svg"><g fill="none" fill-rule="evenodd"><circle cx="10" cy="10" r="10"/><path d="m9.89258312 16c-1.1867067 0-2.22378073-.2348509-3.1112532-.7045597-.88747246-.4697087-1.57288761-1.1392835-2.05626598-2.0087445-.48337838-.8694609-.72506394-1.8838168-.72506394-3.043098v-.35977519c0-1.15928125.25575192-2.18363078.76726343-3.07307932.51151151-.88944855 1.2301744-1.58025988 2.15601023-2.07245472s1.99232133-.73828857 3.19948844-.73828857h.0613811c1.1202102 0 2.121479.22110959 3.0038363.66333542.8823574.44222582 1.5716088 1.05808474 2.067775 1.84759525.4961661.7895105.7442455 1.68394253.7442455 2.68332292v.36727046c0 .68957245-.1138096 1.29668695-.3414322 1.82136165s-.5511488.9306669-.9705883 1.2179888c-.4194394.2873218-.9028105.4309806-1.4501278.4309806-.5012813 0-.9347808-.1011858-1.3005115-.3035603-.3657308-.2023745-.5971863-.470954-.6943734-.8057464h-.0690538c-.0971871.3347924-.3081825.6021227-.6329923.8019988-.3248098.199876-.70971643.2998126-1.15473144.2998126-.45013013 0-.84143056-.0986874-1.17391305-.296065-.33248248-.1973776-.58823439-.4809475-.76726342-.8507183-.17902903-.3697707-.2685422-.8069931-.2685422-1.3116802v-.91442847c0-.48469949.09079193-.90693137.27237851-1.2667083.18158659-.35977694.43861727-.63835005.77109975-.83572767.33248248-.19737763.7212254-.29606496 1.16624041-.29606496.41943944 0 .77877084.09743812 1.07800514.2923173.2992342.19487917.4974419.45721259.5946291.78700812h.0537085v-.142411c0-.23985129.0754468-.43472754.2263427-.5846346s.3465461-.22485946.5869565-.22485946c.2352953 0 .4258305.0749524.5716113.22485946.1457807.14990706.21867.34478331.21867.5846346v2.93066838c0 .2098698.063938.3822604.1918159.5171767.1278779.1349164.2941166.2023735.4987212.2023735.2301802 0 .4309455-.0986873.6023018-.2960649.1713564-.1973776.3043474-.4759508.398977-.8357277s.1419437-.77701198.1419437-1.25171767v-.20237352c0-.76452599-.1866989-1.45034049-.5601023-2.05746408s-.891301-1.08057294-1.5537084-1.42036227c-.6624074-.33978934-1.4104818-.50968145-2.2442455-.50968145h-.0690538c-.92583578 0-1.73784812.19237784-2.43606133.57713929-.69821321.38476144-1.23912852.93066479-1.62276215 1.63772642-.38363363.70706162-.57544757 1.52529204-.57544757 2.4547158v.26233608c0 .9194299.18414138 1.7214206.55242967 2.4059962.36828828.6845756.89130096 1.21299 1.5690537 1.5852592.67775275.3722692 1.47186246.558401 2.38235295.558401h.07672633c.3427127 0 .7468008-.0349778 1.2122762-.1049344.2352953-.0299814.3810739-.0449719.4373402-.0449719.179029 0 .3273651.0549651.4450128.164897.1176476.1099318.1764706.249843.1764706.4197376 0 .2948172-.1662388.4946903-.4987213.5996253-.445015.1449101-1.0690497.2173641-1.87212274.2173641zm-.93606138-5.6889444c0 .9094361.29411424 1.3641474.97442455 1.3641474.32225221 0 .56649531-.1061826.73273661-.3185509.1662412-.2123683.2754475-.5284176.2754475-.9481574v-.62960651c0-.37976454-.1143213-.67707575-.2907928-.89194253s-.4207146-.32229856-.73273658-.32229856c-.32736736 0-.57672548.11617622-.74808184.34853216-.17135635.23235594-.21099744.56839256-.21099744 1.00811993z" fill="#fff" fill-rule="nonzero"/></g></svg>