<svg height="64" viewBox="0 0 64 64" width="64" xmlns="http://www.w3.org/2000/svg"><g fill="none" fill-rule="evenodd"><rect fill="#001433" height="64" opacity=".06" rx="4" width="64"/><path d="m41.9480637 40.8141306c.034199.22363.0519363.4526783.0519363.6858694 0 2.4852814-2.0147186 4.5-4.5 4.5s-4.5-2.0147186-4.5-4.5 2.0147186-4.5 4.5-4.5c.9250733 0 1.784951.2791358 2.5.7577745v-10.9162115-2.1926378c0-.2735256.217172-.5370314.4922264-.5899337l6.0155472-1.1569931c.2718491-.0522858.4922264.1224829.4922264.4005901v3.0484863c0 .2735256-.217172.5370314-.4922264.5899337l-4.5077736.8669973v12.6832791c0 .1129085-.0182323.2214843-.0519363.3228457zm-21.9480637-15.8141306c0-.5522847.4446309-1 1.0008717-1h13.9982566c.5527662 0 1.0008717.4438648 1.0008717 1 0 .5522847-.4446309 1-1.0008717 1h-13.9982566c-.5527662 0-1.0008717-.4438648-1.0008717-1zm0 5c0-.5522847.4446309-1 1.0008717-1h13.9982566c.5527662 0 1.0008717.4438648 1.0008717 1 0 .5522847-.4446309 1-1.0008717 1h-13.9982566c-.5527662 0-1.0008717-.4438648-1.0008717-1zm0 5c0-.5522847.455761-1 1.0024733-1h9.9950534c.5536507 0 1.0024733.4438648 1.0024733 1 0 .5522847-.455761 1-1.0024733 1h-9.9950534c-.5536507 0-1.0024733-.4438648-1.0024733-1z" fill="#a5abb4"/></g></svg>