<svg height="40" viewBox="0 0 40 40" width="40" xmlns="http://www.w3.org/2000/svg"><g fill="none" fill-rule="evenodd"><rect fill="#001433" height="40" opacity=".06" rx="4" width="40"/><path d="m21.9999657 25.515653c.0000229-.0027773.0000343-.0055575.0000343-.0083402v-9.6915528l3.5089948-.6371492c.2631247-.0477772.4910052-.3113983.4910052-.5855495v-2.2755786c0-.281948-.2198305-.4564788-.4910052-.40724l-5.0179896.9111465c-.2631247.0477772-.4910052.3113983-.4910052.5855495v1.4306635 7.4992134c-.4546277-.2159701-.9632014-.3368156-1.5-.3368156-1.9329966 0-3.5 1.5670034-3.5 3.5s1.5670034 3.5 3.5 3.5c1.9277763 0 3.4915335-1.5585509 3.4999657-3.484347z" fill="#a5abb4"/></g></svg>